<?xml version="1.0" encoding="UTF-8"?>
<svg version="1.1" xmlns="http://www.w3.org/2000/svg" width="1120" height="1120">
<path d="M0 0 C369.6 0 739.2 0 1120 0 C1120 369.6 1120 739.2 1120 1120 C750.4 1120 380.8 1120 0 1120 C0 750.4 0 380.8 0 0 Z " fill="#1C1B21" transform="translate(0,0)"/>
<path d="M0 0 C2.40595639 1.87294451 4.63864635 3.81827613 6.8515625 5.9140625 C7.56441406 6.54957031 8.27726562 7.18507812 9.01171875 7.83984375 C15.29002666 13.69568608 20.96622398 20.46475802 21.58984947 29.31437874 C21.61474084 31.29375727 21.60734668 33.27372161 21.5730896 35.25296021 C21.57821615 36.35181293 21.5833427 37.45066566 21.5886246 38.58281696 C21.59845907 42.24218095 21.56558691 45.8998717 21.53271484 49.55908203 C21.53102136 52.19110307 21.53171055 54.82302357 21.53536987 57.45503235 C21.53850618 63.10975387 21.5197851 68.76405794 21.48594284 74.41867447 C21.43704593 82.59408487 21.4215405 90.76929475 21.41401489 98.94483553 C21.40090411 112.21105927 21.36103174 125.47706085 21.30419922 138.74316406 C21.24907057 151.62498874 21.20662679 164.50675294 21.18115234 177.38867188 C21.17878783 178.58102275 21.17878783 178.58102275 21.17637555 179.79746152 C21.16854496 183.78550183 21.1609628 187.77354255 21.15350413 191.76158357 C21.09136919 224.81257158 20.98574778 257.86328724 20.8515625 290.9140625 C30.45421006 288.39831855 39.57827781 284.26977443 45.62923813 276.13207102 C53.88803057 261.14581008 49.88638835 237.66819912 49.41947111 220.92548412 C49.22046661 213.56281874 49.18064078 206.20166715 49.15125304 198.83668328 C49.09560252 185.69698709 48.93158627 172.56111561 48.69091797 159.42358398 C48.45807754 146.69309128 48.2516735 133.96292161 48.09814453 121.23120117 C48.08864668 120.44564987 48.07914884 119.66009857 48.06936318 118.85074269 C47.9668749 110.27020181 47.87759236 101.68961894 47.80669403 93.10875797 C47.8004478 92.35431141 47.79420158 91.59986485 47.78776607 90.82255628 C47.7630439 87.80643214 47.73857506 84.79030785 47.71591514 81.77416743 C47.64952358 72.95960844 47.54197944 64.14794054 47.35868406 55.3349976 C47.2316938 49.16047206 47.15232441 42.98621661 47.08971214 36.81072044 C47.05505298 34.28043039 47.00292199 31.75031029 46.93204689 29.2207756 C46.40678267 10.08046903 46.40678267 10.08046903 50.00712585 4.68185616 C52.5634069 2.587809 54.83706863 1.23301171 57.8515625 -0.0859375 C59.06620253 -0.8572369 60.27322488 -1.64079845 61.46875 -2.44140625 C79.72868523 -12.70988302 97.26887764 -17.65385255 118.3515625 -13.0859375 C137.81566628 -6.96046955 158.15461421 6.62388362 167.8515625 24.9140625 C167.8515625 25.5740625 167.8515625 26.2340625 167.8515625 26.9140625 C169.0890625 27.0171875 170.3265625 27.1203125 171.6015625 27.2265625 C196.86175876 30.13364574 218.31959474 42.36884496 236.1640625 59.9765625 C236.75123047 60.55422363 237.33839844 61.13188477 237.94335938 61.72705078 C240.71784656 64.52294115 243.09115291 67.19839793 245.19140625 70.53515625 C248.20877744 74.91856144 252.39424955 76.69124096 257.1015625 78.9140625 C263.95878717 82.35429069 270.19858198 85.64953272 275.8515625 90.9140625 C276.33254395 91.35024902 276.81352539 91.78643555 277.30908203 92.23583984 C286.02061905 100.20180677 292.90898115 108.72081225 298.8515625 118.9140625 C299.20025391 119.50960937 299.54894531 120.10515625 299.90820312 120.71875 C305.48615558 130.48816577 308.96212224 140.82041608 312.48754883 151.47094727 C314.99183688 158.87881209 317.96840835 165.21624079 322.06640625 171.83984375 C330.34101917 186.08956009 332.42468143 203.10774385 332.3515625 219.2890625 C332.35190994 220.31040787 332.35190994 220.31040787 332.3522644 221.35238647 C332.31884075 235.80086344 330.43774787 250.15550638 325.8515625 263.9140625 C325.80278063 266.06064527 325.81467426 268.20879711 325.859375 270.35546875 C325.8785498 271.65274902 325.89772461 272.9500293 325.91748047 274.28662109 C325.92793396 274.97101257 325.93838745 275.65540405 325.94915771 276.36053467 C326.42962052 313.45889783 314.40232624 345.30071493 288.60400391 372.4987793 C272.43883554 389.07109766 251.35568738 398.21041671 230.16601562 406.62817383 C208.721577 415.21035567 190.16951558 427.50044077 180.37109375 449.19140625 C176.02379123 460.11703164 174.55670752 469.54514773 174.59619141 481.28979492 C174.59063369 483.3085353 174.58507166 485.32727566 174.57934737 487.34601557 C174.57502737 489.50054501 174.57547188 491.65502815 174.57716751 493.80956078 C174.58002118 498.32145369 174.56557129 502.8331926 174.54818726 507.345047 C174.50135915 520.1698679 174.47723868 532.99467737 174.47070312 545.81958008 C174.46693494 552.91491756 174.44876671 560.01007948 174.41560876 567.10534173 C174.39555961 571.57658001 174.39294244 576.04736037 174.40388894 580.51862466 C174.40652375 583.3185911 174.39235901 586.11829903 174.37380791 588.91819763 C174.36607743 590.80477649 174.37781461 592.69140502 174.39048767 594.57795715 C174.19608571 615.01867037 165.31752626 631.15032697 151.4765625 645.6015625 C139.92251446 656.9140625 139.92251446 656.9140625 135.8515625 656.9140625 C135.73710089 613.64293019 135.64900536 570.37181536 135.59623585 527.10056163 C135.58998237 521.99119448 135.58351075 516.88182764 135.5769043 511.77246094 C135.57559274 510.7552844 135.57428119 509.73810787 135.5729299 508.69010781 C135.55117746 492.22334094 135.5117568 475.7566614 135.46579852 459.28994633 C135.41902943 442.39169806 135.39126614 425.4934955 135.38112003 408.59518516 C135.37426182 398.16924309 135.35260624 387.7435479 135.31198017 377.31768183 C135.28553624 370.16681966 135.27756526 363.01608498 135.28405561 355.86517747 C135.28725594 351.74032656 135.28237423 347.61590684 135.25553513 343.49113274 C135.23111604 339.71058381 135.23003019 335.93075403 135.24706803 332.15017127 C135.25016479 330.1433728 135.22867731 328.1365822 135.20615596 326.12990773 C135.27832948 317.3739728 136.71550225 310.37112806 142.8121044 303.80136025 C151.99622168 295.06188108 160.65412353 294.32203414 172.7890625 294.2890625 C195.02962743 294.11741814 209.00286499 288.4985533 225.2890625 272.7890625 C242.2451585 255.44923589 254.09402099 236.83723743 254.10253906 212.07519531 C253.98346422 201.60743404 252.32708262 191.04731874 246.8515625 181.9140625 C246.1915625 181.5840625 245.5315625 181.2540625 244.8515625 180.9140625 C244.62855469 181.60886719 244.40554688 182.30367187 244.17578125 183.01953125 C242.54083461 186.59326417 240.23398744 189.30353126 237.6640625 192.2265625 C236.91769531 193.08749512 236.91769531 193.08749512 236.15625 193.96582031 C235.16724851 195.10574086 234.17593648 196.24366159 233.18212891 197.37939453 C232.08658647 198.64298714 231.0179549 199.92986063 229.95703125 201.22265625 C222.42505787 210.33066299 212.49097566 217.19981717 202.8515625 223.9140625 C202.23796875 224.37167969 201.624375 224.82929688 200.9921875 225.30078125 C196.69269219 228.21829593 192.56424866 228.62123929 187.51171875 228.43359375 C183.12483532 227.57683091 180.59327135 225.34530291 177.8515625 221.9140625 C175.25600936 217.73860745 174.91845602 212.69418691 175.8515625 207.9140625 C178.6344096 202.92412978 182.55240951 199.96883611 187.8515625 197.9140625 C188.93953125 197.66011719 190.0275 197.40617188 191.1484375 197.14453125 C195.2331895 195.78725606 197.99351372 193.84238702 201.1640625 191.0390625 C201.72383789 190.55074951 202.28361328 190.06243652 202.86035156 189.55932617 C216.92402859 176.98816187 229.82603571 158.96300793 230.99462891 139.53564453 C231.79365211 117.07694611 228.37113701 97.87501686 213.09375 80.30859375 C201.07220532 67.47025423 184.47520284 58.82285441 166.8515625 56.9140625 C165.14613281 56.97400391 165.14613281 56.97400391 163.40625 57.03515625 C159.57587204 57.10428197 156.52928065 57.01517572 152.8515625 55.9140625 C150.20485417 52.99083241 148.4702587 49.88712531 146.69921875 46.40234375 C143.89612774 41.11025016 140.06077615 37.12327615 135.8515625 32.9140625 C135.04589844 32.10839844 134.24023438 31.30273438 133.41015625 30.47265625 C128.01744197 25.34999965 122.71728184 21.76579235 115.8515625 18.9140625 C114.8409375 18.4809375 113.8303125 18.0478125 112.7890625 17.6015625 C98.84805639 14.33877384 85.27397083 21.12266868 73.64453125 28.2421875 C70.8515625 29.9140625 70.8515625 29.9140625 67.8515625 30.9140625 C67.85308138 31.95381806 67.85460026 32.99357362 67.85616517 34.06483692 C67.92284168 79.88863523 67.98455269 125.712437 68.02093506 171.53627014 C68.02148729 172.23002824 68.02203952 172.92378633 68.02260848 173.6385674 C68.03458013 188.71582224 68.04566085 203.79307762 68.05582382 218.87033379 C68.06081316 226.26422329 68.06599938 233.65811266 68.07128906 241.05200195 C68.0718121 241.78778257 68.07233513 242.52356319 68.07287402 243.28164018 C68.08991922 267.13014451 68.11996431 290.97861092 68.15675138 314.82709228 C68.19448641 339.33463402 68.21910536 363.84215478 68.22722246 388.34972508 C68.22837508 391.81129609 68.22967763 395.27286702 68.23107147 398.73443794 C68.23147601 399.75636751 68.23147601 399.75636751 68.23188872 400.79894212 C68.23661548 411.76550674 68.25516739 422.73200648 68.27889064 433.69854464 C68.30244579 444.72378924 68.31110906 455.74898453 68.30556801 466.77425718 C68.30300187 472.74795786 68.30698123 478.72146814 68.3283844 484.69513512 C68.34783501 490.1637071 68.34884193 495.63196043 68.33515808 501.10054702 C68.33346659 503.07916615 68.3385532 505.05780507 68.35109523 507.03638517 C68.36715984 509.72706821 68.35848938 512.41660262 68.34375381 515.10726833 C68.35426187 515.87456751 68.36476992 516.64186669 68.3755964 517.43241736 C68.29636635 523.83927462 66.53762044 529.84821855 62.25000001 534.74207246 C56.06966701 540.6350419 48.36087604 545.14652314 41.25878906 549.84155273 C38.95624326 551.3650065 36.66143011 552.89962467 34.3671875 554.43554688 C32.90669188 555.40691472 31.44576989 556.37764186 29.984375 557.34765625 C29.29795929 557.80692001 28.61154358 558.26618378 27.90432739 558.73936462 C23.08212257 561.9140625 23.08212257 561.9140625 20.8515625 561.9140625 C20.95903999 574.2314971 21.07166864 586.54887274 21.19090176 598.86619949 C21.246102 604.585422 21.29951746 610.30464965 21.34887695 616.02392578 C21.39656313 621.54175028 21.44890762 627.0595126 21.50450325 632.57726288 C21.52490749 634.68400273 21.54362376 636.79075963 21.56063652 638.8975296 C21.58472314 641.84483506 21.61477208 644.79202323 21.64624023 647.73925781 C21.6519957 648.61319687 21.65775116 649.48713593 21.66368103 650.38755798 C21.67836426 651.59482292 21.67836426 651.59482292 21.69334412 652.82647705 C21.69979667 653.52335255 21.70624922 654.22022804 21.7128973 654.93822098 C21.86377146 657.088028 22.09288667 658.89085719 22.8515625 660.9140625 C29.83791962 663.24284821 36.16868033 662.62614908 42.7265625 659.3515625 C44.78170889 658.23008575 46.82286913 657.0827113 48.8515625 655.9140625 C51.17764909 654.58768148 53.51216807 653.2797151 55.8515625 651.9765625 C57.429375 651.06583984 57.429375 651.06583984 59.0390625 650.13671875 C61.8515625 648.9140625 61.8515625 648.9140625 64.2265625 649.22265625 C65.0309375 649.56490234 65.0309375 649.56490234 65.8515625 649.9140625 C66.54734832 660.98865341 64.77402663 670.27143117 57.6015625 679.00390625 C50.17680081 687.10816622 43.37819589 692.0596879 32.23828125 693.32421875 C20.80047615 693.77986165 12.25088865 691.10170401 3.4765625 683.7265625 C-3.69203278 676.81151882 -9.13358201 668.3169239 -9.39749318 658.15017182 C-9.40728162 656.22934609 -9.40604056 654.30844535 -9.39618397 652.38761997 C-9.39993109 650.78993313 -9.39993109 650.78993313 -9.40375391 649.15996978 C-9.40973414 645.57269678 -9.40142082 641.98559739 -9.39326477 638.39833069 C-9.39468658 635.80776596 -9.39699868 633.21720159 -9.40012711 630.62663835 C-9.40555312 624.98483792 -9.40363315 619.3430772 -9.3969326 613.70127869 C-9.38703489 605.31175235 -9.38866366 596.92225627 -9.39288875 588.53272654 C-9.39934872 575.28448404 -9.39881231 562.03625317 -9.3933382 548.78801057 C-9.38466816 527.7606989 -9.39340786 506.73342288 -9.40767985 485.70611555 C-9.41310075 477.61724833 -9.41798498 469.52838075 -9.42290783 461.43951321 C-9.42373319 460.09149163 -9.42373319 460.09149163 -9.42457522 458.71623729 C-9.43759391 437.3226263 -9.44572392 415.92901436 -9.4519043 394.53540039 C-9.45217957 393.59925181 -9.45245485 392.66310323 -9.45273846 391.69858651 C-9.45910011 369.85303215 -9.46204982 348.00748134 -9.45812988 326.16192627 C-9.4578786 324.75226077 -9.4578786 324.75226077 -9.45762225 323.31411719 C-9.45676433 318.57526528 -9.45586608 313.83641337 -9.45495292 309.09756147 C-9.45477251 308.16098422 -9.4545921 307.22440697 -9.45440623 306.25944859 C-9.45404046 304.36905166 -9.45367135 302.47865472 -9.4532989 300.58825779 C-9.44724922 269.37036814 -9.45798722 238.15252104 -9.48778267 206.93464433 C-9.49196801 202.52805384 -9.4959322 198.12146318 -9.49974632 193.71487236 C-9.50049936 192.84760482 -9.50125239 191.98033728 -9.50202825 191.08678891 C-9.51360548 177.11680543 -9.50695395 163.14688673 -9.49315708 149.17690767 C-9.47960094 135.14352394 -9.48371634 121.11023734 -9.5061268 107.07686407 C-9.51887425 98.7354063 -9.51755564 90.39422185 -9.49633812 82.0527799 C-9.48203035 75.83114557 -9.49363142 69.60981636 -9.51544978 63.38820951 C-9.52019563 60.866075 -9.51641307 58.34390768 -9.50342432 55.82180215 C-9.48702815 52.40281088 -9.50118292 48.98527433 -9.52316761 45.56634617 C-9.51106519 44.57892141 -9.49896277 43.59149666 -9.48649362 42.57414994 C-9.57318927 36.05363307 -10.80641054 32.8216531 -15.1484375 27.9140625 C-17.69306314 25.76474918 -17.69306314 25.76474918 -20.4609375 24.1640625 C-21.34394531 23.61234375 -22.22695313 23.060625 -23.13671875 22.4921875 C-31.12412844 18.30682626 -37.43855436 17.36115244 -46.3984375 17.4140625 C-48.07123779 17.42264282 -48.07123779 17.42264282 -49.77783203 17.43139648 C-58.0246283 17.61088487 -64.04787567 18.51104535 -71.1484375 22.9140625 C-72.55029297 23.69330078 -72.55029297 23.69330078 -73.98046875 24.48828125 C-83.92661886 30.32535156 -94.95452777 39.84270033 -98.90625 51.06640625 C-99.5859375 52.9765625 -99.5859375 52.9765625 -102.1484375 55.9140625 C-106.09330611 56.5546428 -109.92573798 56.67759788 -113.9140625 56.7578125 C-132.12865651 57.18407663 -149.62021087 66.09831281 -162.7265625 78.328125 C-169.38588747 85.43856553 -174.8140684 93.74031606 -178.1484375 102.9140625 C-178.43332031 103.67460937 -178.71820313 104.43515625 -179.01171875 105.21875 C-184.1041832 119.55488216 -184.39918167 138.59576816 -179.1484375 152.9140625 C-178.79652344 153.90277344 -178.44460938 154.89148438 -178.08203125 155.91015625 C-171.93252202 171.8420531 -159.9339349 187.87716649 -145.1484375 196.9140625 C-142.57269381 197.81361377 -142.57269381 197.81361377 -139.9609375 198.4140625 C-135.13527397 199.63381947 -132.42981793 201.60013239 -129.37890625 205.53515625 C-127.08511318 209.96982285 -127.00373134 214.10629662 -128.1484375 218.9140625 C-130.20869714 222.70927762 -132.8221113 225.08958946 -136.4609375 227.3515625 C-142.60843659 228.63824836 -147.24301612 228.7935752 -152.8359375 225.6015625 C-154.63207699 224.40967982 -156.40066155 223.17579964 -158.1484375 221.9140625 C-159.210625 221.14835938 -160.2728125 220.38265625 -161.3671875 219.59375 C-174.40014836 209.89294292 -185.75090062 198.46644996 -195.29296875 185.328125 C-196.9216642 182.8455219 -196.9216642 182.8455219 -199.1484375 181.9140625 C-205.65742032 200.20120471 -208.8153461 219.80963001 -200.70703125 238.1796875 C-194.24999299 250.82409652 -185.25018362 261.31320156 -175.49853516 271.4921875 C-174.34453639 272.7075381 -173.21809642 273.94895619 -172.09765625 275.1953125 C-164.08507336 283.8427253 -151.91070721 292.16846874 -140.1484375 293.9140625 C-137.39444031 293.95028303 -134.66919124 293.93587152 -131.91796875 293.87109375 C-130.29363219 293.84869175 -128.66928232 293.82723786 -127.04492188 293.80664062 C-124.50833479 293.76971547 -121.97244108 293.72683282 -119.4362793 293.66723633 C-107.80783583 293.40726234 -97.51498341 293.29020671 -88.3359375 301.5390625 C-87.64886719 302.12945313 -86.96179688 302.71984375 -86.25390625 303.328125 C-79.42985326 311.70942942 -78.4280541 319.44325511 -78.54716492 330.02432251 C-78.54498106 331.4353901 -78.54059678 332.84645568 -78.53421909 334.25751054 C-78.52309743 338.1117157 -78.54295669 341.96521936 -78.56810939 345.81933522 C-78.58978077 349.98415967 -78.58238926 354.14894725 -78.57859802 358.31381226 C-78.57598124 365.52196181 -78.59161646 372.72988437 -78.61978722 379.93797684 C-78.66049023 390.35952023 -78.67345139 400.78095431 -78.67972717 411.20256858 C-78.6906597 428.11248417 -78.72390559 445.0222789 -78.77124023 461.93212891 C-78.81716281 478.35464881 -78.85254152 494.77713585 -78.8737793 511.19970703 C-78.87509291 512.21265829 -78.87640653 513.22560955 -78.87775996 514.26925631 C-78.88428533 519.35113398 -78.89060382 524.43301189 -78.89681947 529.51488996 C-78.94862002 571.64803153 -79.0366569 613.78104009 -79.1484375 655.9140625 C-84.67168099 653.80020035 -88.58458497 650.61711722 -93.1484375 646.9140625 C-94.1590625 646.1509375 -95.1696875 645.3878125 -96.2109375 644.6015625 C-102.76729899 638.60318922 -107.4515526 631.85434088 -111.4609375 623.9765625 C-111.78626465 623.34516357 -112.1115918 622.71376465 -112.44677734 622.06323242 C-117.11908782 612.48681633 -118.59349897 603.16189213 -118.54907227 592.58056641 C-118.55605133 591.40015274 -118.5630304 590.21973907 -118.57022095 589.0035553 C-118.59008523 585.13250433 -118.58969714 581.26172223 -118.58984375 577.390625 C-118.59978878 574.67977945 -118.61476055 571.96896928 -118.62986755 569.25814819 C-118.67065077 561.41183162 -118.68939271 553.56553758 -118.70603943 545.7191391 C-118.72846073 535.73966716 -118.7622912 525.76026028 -118.81323856 515.78089273 C-118.83612815 511.13992446 -118.84291212 506.49909442 -118.84632874 501.85806274 C-118.85611382 499.40748898 -118.86637853 496.95691707 -118.87719727 494.50634766 C-118.87464432 493.4202269 -118.87209137 492.33410614 -118.86946106 491.21507263 C-119.01561648 469.01960408 -125.10245869 447.6253244 -140.1484375 430.9140625 C-140.74011719 430.21796875 -141.33179688 429.521875 -141.94140625 428.8046875 C-153.53664686 416.0474505 -172.47210629 410.0108871 -187.98046875 403.4375 C-224.75717462 387.80216699 -252.59165376 366.00169703 -268.15625 328.140625 C-268.78681661 326.52660588 -269.40944156 324.90945781 -270.0234375 323.2890625 C-270.29768555 322.57459961 -270.57193359 321.86013672 -270.85449219 321.12402344 C-276.01974327 306.75756733 -276.59486697 292.73676157 -276.58422852 277.68334961 C-276.60156558 266.26515826 -277.86960732 255.94014244 -280.68106079 244.87133789 C-284.52082565 228.79120998 -285.40034672 208.95433381 -281.1484375 192.9140625 C-280.85324219 191.79902344 -280.55804688 190.68398438 -280.25390625 189.53515625 C-278.05527152 182.20896349 -275.1102872 175.78063122 -271.3984375 169.1015625 C-267.20580183 161.55231803 -264.22724251 153.92167935 -261.5234375 145.7265625 C-252.40487668 118.18368968 -237.30520439 94.10351124 -211.703125 79.17578125 C-208.94702503 77.81458815 -206.19518309 76.86343607 -203.2734375 75.9140625 C-198.28568314 74.2003927 -196.75426143 72.60454558 -194.1484375 67.9140625 C-191.26480051 64.47303612 -188.20442597 61.20188458 -185.1484375 57.9140625 C-184.62765625 57.3159375 -184.106875 56.7178125 -183.5703125 56.1015625 C-167.95115558 39.00269598 -142.29520933 27.99414886 -119.39453125 26.95703125 C-118.28271484 26.93576172 -118.28271484 26.93576172 -117.1484375 26.9140625 C-117.09042969 26.21539062 -117.03242188 25.51671875 -116.97265625 24.796875 C-115.87573376 20.96024564 -113.65185293 18.61261073 -110.9609375 15.7890625 C-110.42774902 15.22429199 -109.89456055 14.65952148 -109.34521484 14.07763672 C-79.85984706 -16.39883587 -36.0759599 -23.90144242 0 0 Z " fill="#F8F8F8" transform="translate(536.1484375,226.0859375)"/>
<path d="M0 0 C-0.14800049 0.5355249 -0.29600098 1.0710498 -0.44848633 1.62280273 C-2.56260055 10.4091663 -2.02501364 19.24285365 -1.58178711 28.19848633 C-0.95363533 41.62426603 -0.95363533 41.62426603 -5.1953125 46.859375 C-5.83267334 47.54008057 -6.47003418 48.22078613 -7.12670898 48.92211914 C-10.36534791 52.51446319 -12.17504919 56.82792915 -14.1875 61.1875 C-14.61603271 62.10370117 -15.04456543 63.01990234 -15.48608398 63.96386719 C-26.12131466 87.23111403 -27.31014265 113.16976073 -18.83203125 137.328125 C-17.66114961 140.28374855 -16.38404743 143.13855298 -15 146 C-14.57074219 146.89847656 -14.14148438 147.79695312 -13.69921875 148.72265625 C-7.03473392 161.77002796 2.92582952 172.51769297 13 183 C13.86882812 183.91007813 14.73765625 184.82015625 15.6328125 185.7578125 C30.7250012 201.22848869 49.01476613 212.8956778 71.19140625 213.2109375 C72.56186132 213.23898591 73.93230389 213.26765021 75.30273438 213.296875 C77.43774322 213.33818347 79.57251329 213.37512307 81.70776367 213.40136719 C83.78611649 213.42904992 85.86344993 213.47488485 87.94140625 213.5234375 C89.17576416 213.54325684 90.41012207 213.56307617 91.68188477 213.58349609 C96.22320962 214.15354246 98.80521162 215.80521162 102 219 C102.24050903 221.89797974 102.24050903 221.89797974 102.22705078 225.65283203 C102.22734283 226.33587402 102.22763489 227.01891602 102.22793579 227.72265625 C102.22654039 229.98450341 102.21096967 232.24602276 102.1953125 234.5078125 C102.19158311 236.07436951 102.18873579 237.64092884 102.18673706 239.20748901 C102.17909476 243.33394797 102.15944124 247.46026651 102.1373291 251.58666992 C102.11688346 255.79604187 102.1077381 260.00543648 102.09765625 264.21484375 C102.07619583 272.476627 102.04205279 280.73829604 102 289 C98.80373476 285.83105608 95.78894445 282.61664755 92.875 279.1875 C80.34594243 265.24554705 66.30769505 260.94163758 48.3125 259.0625 C26.20000862 256.73970145 4.85625904 251.25090103 -12 236 C-12.75796875 235.33484375 -13.5159375 234.6696875 -14.296875 233.984375 C-23.57095099 225.34989046 -30.68614012 213.88177324 -35 202 C-35.22703613 201.38189453 -35.45407227 200.76378906 -35.68798828 200.12695312 C-39.42444798 189.52642244 -40.18086339 180.02297612 -39.8125 168.8125 C-39.47336018 157.39276511 -41.01253748 150.35050685 -46.99121094 140.76806641 C-55.26944996 126.25911021 -56.82307885 108.32382327 -56 92 C-55.94416748 90.87754883 -55.94416748 90.87754883 -55.88720703 89.73242188 C-55.17751797 77.76389283 -52.33051737 67.14296105 -48 56 C-47.68724121 55.18789063 -47.37448242 54.37578125 -47.05224609 53.5390625 C-41.7929244 40.05335296 -36.81974923 28.40042813 -25.0390625 19.39453125 C-21.03180839 16.23714466 -17.3645278 12.77152013 -13.67919922 9.24829102 C-3.87554405 0 -3.87554405 0 0 0 Z " fill="#1E1D22" transform="translate(328,335)"/>
<path d="M0 0 C3.55287344 1.69872795 6.37781472 3.75472268 9.4375 6.25 C10.36433594 6.99765625 11.29117188 7.7453125 12.24609375 8.515625 C15 11 15 11 17.45703125 14.01953125 C20.14410644 17.16889894 22.83259013 19.122081 26.25 21.4375 C42.84416304 33.68039821 52.08541017 60.31485745 55.4375 80.02734375 C58.74645592 105.30585794 55.43402191 132.34896714 41 154 C40.78855772 156.71305963 40.78855772 156.71305963 40.9453125 159.78515625 C40.98652222 161.52829102 40.98652222 161.52829102 41.02856445 163.30664062 C41.07630005 165.16579102 41.07630005 165.16579102 41.125 167.0625 C41.32723405 183.33248852 39.19323055 197.24983623 32 212 C31.52046875 213.04414062 31.0409375 214.08828125 30.546875 215.1640625 C21.65567674 233.24858711 7.1192679 244.23167134 -11 252 C-11.78375 252.35707031 -12.5675 252.71414063 -13.375 253.08203125 C-17.25511053 254.43891514 -21.21299921 255.13287098 -25.25 255.875 C-26.60883301 256.13108032 -26.60883301 256.13108032 -27.99511719 256.39233398 C-33.19375784 257.35529006 -38.40027084 258.23347143 -43.625 259.04296875 C-44.72811523 259.21393066 -45.83123047 259.38489258 -46.96777344 259.56103516 C-49.10525569 259.88760378 -51.24390105 260.20667605 -53.38378906 260.51708984 C-69.47513728 262.95509372 -79.72186849 269.19330767 -90 282 C-90.33 282.66 -90.66 283.32 -91 284 C-91.66 284 -92.32 284 -93 284 C-93.0926956 275.46380765 -93.16376219 266.92782571 -93.20724869 258.39125443 C-93.22812052 254.42732207 -93.25642999 250.46373413 -93.30175781 246.5 C-93.34523119 242.67447273 -93.36914015 238.84927666 -93.37950897 235.02352142 C-93.38689778 233.56424495 -93.40132665 232.10498654 -93.42292023 230.64585114 C-93.45197624 228.601068 -93.45595541 226.5576518 -93.45410156 224.51269531 C-93.46298401 223.34909485 -93.47186646 222.18549438 -93.48101807 220.9866333 C-92.89715342 217.36142726 -91.89228744 216.19365842 -89 214 C-86.30541992 213.51757812 -86.30541992 213.51757812 -83.23046875 213.53125 C-82.1017334 213.52029297 -80.97299805 213.50933594 -79.81005859 213.49804688 C-78.61461426 213.49869141 -77.41916992 213.49933594 -76.1875 213.5 C-53.98197565 213.04390233 -35.34274265 206.45410602 -19 191 C-18.0409375 190.1023291 -18.0409375 190.1023291 -17.0625 189.18652344 C-7.21942367 179.89078729 1.57559989 170.33730373 9 159 C9.66386719 157.99710938 10.32773437 156.99421875 11.01171875 155.9609375 C24.89358089 133.61746309 28.12599341 108.14617175 22.2578125 82.7578125 C19.77297689 72.91691837 15.61916091 63.91658901 10.9375 54.9375 C10.62135742 54.32994873 10.30521484 53.72239746 9.97949219 53.09643555 C8.35562464 50.1006081 6.75366607 47.74039197 4.39941406 45.25927734 C1.48101671 41.79353596 1.44562171 39.04712422 1.58203125 34.51171875 C1.59384933 33.80908401 1.60566742 33.10644928 1.61784363 32.38252258 C1.6587919 30.14953384 1.73348692 27.91943841 1.8125 25.6875 C1.89598207 22.75411284 1.96421892 19.82076932 2.01953125 16.88671875 C2.03380157 16.19005096 2.0480719 15.49338318 2.06277466 14.77560425 C2.11864871 9.53310977 1.46788949 5.01576137 0 0 Z " fill="#1D1C22" transform="translate(793,335)"/>
<path d="M0 0 C0.07003683 27.94614643 0.12296207 55.89227974 0.15543652 83.83849621 C0.17091478 96.81399148 0.19202267 109.78943227 0.22631836 122.76489258 C0.25619129 134.07241947 0.27556802 145.37990691 0.28226548 156.68747216 C0.2861813 162.67643988 0.29540403 168.66529471 0.31719017 174.6542263 C0.33752197 180.28891009 0.34384046 185.92343426 0.33932304 191.55815125 C0.34014972 193.628196 0.34613495 195.69824597 0.35761642 197.76825905 C0.37250866 200.59120191 0.36896545 203.41353955 0.36076355 206.23649597 C0.36950207 207.05848565 0.3782406 207.88047532 0.38724393 208.72737378 C0.35092839 213.34124522 -0.15900585 216.31625536 -3 220 C-4.60644531 221.49804688 -4.60644531 221.49804688 -6.328125 222.71875 C-6.96363281 223.17636719 -7.59914063 223.63398437 -8.25390625 224.10546875 C-8.91261719 224.56566406 -9.57132813 225.02585937 -10.25 225.5 C-10.89324219 225.96019531 -11.53648437 226.42039062 -12.19921875 226.89453125 C-13.48641846 227.81395961 -14.77741473 228.7280974 -16.07226562 229.63671875 C-17.38263887 230.56340621 -18.68318666 231.50411201 -19.97460938 232.45703125 C-24.79005282 236 -24.79005282 236 -27 236 C-27.3505468 207.61912121 -27.61498419 179.23856724 -27.77718258 150.85595894 C-27.85449984 137.6769991 -27.95988759 124.49938502 -28.1315918 111.32128906 C-28.28119565 99.83388427 -28.37789432 88.34745403 -28.41132742 76.85910213 C-28.43086966 70.77657655 -28.4767164 64.69683867 -28.58595085 58.61520767 C-28.68800499 52.88676823 -28.71913283 47.16225511 -28.69661522 41.43299294 C-28.70073211 39.33420119 -28.73044787 37.23527428 -28.78808212 35.13726997 C-29.19124359 19.70029489 -29.19124359 19.70029489 -25.53979039 15.20056677 C-22.00769646 12.07272604 -18.09670875 9.93180856 -13.84934628 7.92904449 C-11.07986131 6.5377557 -8.66237778 4.72866016 -6.1875 2.875 C-2.23271889 0 -2.23271889 0 0 0 Z " fill="#1D1C21" transform="translate(584,538)"/>
<path d="M0 0 C26.84002161 12.06467579 51.06196941 34.74089857 62.17578125 62.00390625 C64.16855898 67.41854535 64.33933995 72.1937204 64.34375 77.91796875 C64.35599609 78.73910156 64.36824219 79.56023437 64.38085938 80.40625 C64.40348081 89.92233561 62.33763286 99.18715924 55.6015625 106.3125 C50.64607981 110.58999376 46.29422125 111.13239302 39.95703125 111.08203125 C35.43758358 110.41388418 32.94151644 108.17039961 30.15625 104.66796875 C27.82523622 100.71538017 27.62770839 97.19832542 28.15625 92.66796875 C28.95043351 91.33141601 29.78875878 90.02064691 30.65625 88.73046875 C34.4890762 82.29483507 34.33279827 74.88522089 33.15625 67.66796875 C28.91092926 53.30577478 16.1693263 42.69937387 4.15625 34.66796875 C3.49367188 34.20390625 2.83109375 33.73984375 2.1484375 33.26171875 C-3.26441806 29.98120023 -9.1007149 30.18749894 -15.2578125 30.13671875 C-20.59724941 29.43875314 -23.62407114 26.98393804 -27.21875 23.10546875 C-29.53523202 18.20521832 -29.97916661 13.98412465 -28.84375 8.66796875 C-22.51444219 -2.00734879 -11.33412246 -4.41765313 0 0 Z " fill="#F8F8F8" transform="translate(658.84375,281.33203125)"/>
<path d="M0 0 C4.70222642 2.81612081 7.73335474 5.75084547 9.48828125 11.015625 C10.02323857 15.6197659 9.92192439 19.09630154 7.92578125 23.328125 C3.76026724 27.92087122 1.01013316 29.8406833 -5.171875 30.26953125 C-6.55587117 30.31377008 -7.94000016 30.35400038 -9.32421875 30.390625 C-16.88883652 30.63676224 -21.57953275 32.33851306 -27.51171875 37.015625 C-28.88263672 38.04623047 -28.88263672 38.04623047 -30.28125 39.09765625 C-41.1232369 47.56656804 -52.7655808 59.21540853 -54.8828125 73.5234375 C-55.02001556 78.93085236 -54.44905536 82.71035643 -52.01171875 87.578125 C-49.41893845 92.78597311 -48.09998824 97.24125506 -49.51171875 103.015625 C-51.82532998 106.98491427 -54.12432709 109.55316111 -58.51171875 111.015625 C-63.51280853 111.66761893 -68.37265928 112.14543419 -72.9375 109.734375 C-77.53844474 105.92191608 -80.4132242 101.57351899 -82.51171875 96.015625 C-83.04925781 94.6853125 -83.04925781 94.6853125 -83.59765625 93.328125 C-84.74721814 89.16219133 -84.80452119 85.37620363 -84.76171875 81.078125 C-84.76945312 80.30533203 -84.7771875 79.53253906 -84.78515625 78.73632812 C-84.7685491 73.82476214 -84.08568997 69.71505336 -82.51171875 65.015625 C-82.228125 64.11199219 -81.94453125 63.20835937 -81.65234375 62.27734375 C-72.96092509 37.1560942 -51.69861239 20.10382663 -29.88671875 6.390625 C-29.24855225 5.9891626 -28.61038574 5.5877002 -27.95288086 5.17407227 C-19.34523183 -0.09201016 -10.01999791 -3.92696652 0 0 Z " fill="#F8F8F8" transform="translate(482.51171875,280.984375)"/>
<path d="M0 0 C10.36088959 1.11061722 20.6847007 2.46318376 31 3.9375 C32.1444458 4.09508789 33.2888916 4.25267578 34.46801758 4.41503906 C52.04410475 6.97594643 65.5035799 13.40368322 76.5625 27.625 C85.85208784 40.51998732 93.28190646 53.77108598 94 70 C91.93152176 66.89728263 90.70730316 63.95452619 89.3125 60.5 C80.49406567 39.41647056 65.69250577 23.36807409 44.80078125 14.140625 C37.83947237 11.30561497 31.14055096 9.20203016 23.8125 7.5625 C15.74573177 5.70584599 7.86047973 3.61043761 0 1 C0 0.67 0 0.34 0 0 Z " fill="#252428" transform="translate(341,603)"/>
<path d="M0 0 C-2.99989968 2.99989968 -6.79306292 3.31670004 -10.8125 4.25 C-39.38271296 10.76987478 -39.38271296 10.76987478 -64 26 C-64.72703125 26.63292969 -65.4540625 27.26585937 -66.203125 27.91796875 C-77.81187353 38.7352117 -84.71744647 52.6624407 -91 67 C-92.34181502 62.65287874 -91.28503908 59.30425784 -90 55.0625 C-89.7721582 54.30759277 -89.54431641 53.55268555 -89.30957031 52.77490234 C-83.89369724 35.67043273 -72.21983944 18.77758568 -56.125 10.125 C-45.18984698 5.19743105 -33.17675896 3.98893898 -21.41064453 2.34082031 C-19.19760338 2.02793744 -16.98726409 1.70130073 -14.77734375 1.3671875 C-12.93849609 1.09261719 -12.93849609 1.09261719 -11.0625 0.8125 C-10.00160156 0.65394531 -8.94070313 0.49539063 -7.84765625 0.33203125 C-5.19883388 0.02318365 -2.66337507 -0.06376404 0 0 Z " fill="#212226" transform="translate(783,603)"/>
<path d="M0 0 C10.81553551 1.12523931 21.37194659 2.67946432 32 5 C31.67 5.99 31.34 6.98 31 8 C24.33105032 7.39742485 18.04751872 6.21139653 11.5625 4.5625 C10.21768555 4.23668945 10.21768555 4.23668945 8.84570312 3.90429688 C7.99041016 3.68966797 7.13511719 3.47503906 6.25390625 3.25390625 C5.09870483 2.96495483 5.09870483 2.96495483 3.92016602 2.67016602 C2 2 2 2 0 0 Z " fill="#1F1F20" transform="translate(341,603)"/>
<path d="M0 0 C5.96237448 7.18892008 7.5970456 16.89323057 8 26 C5.87887605 22.81831407 4.53820538 19.71342201 3.0625 16.1875 C1.18401255 11.70507342 -0.78126059 7.32488608 -3 3 C-2.01 2.67 -1.02 2.34 0 2 C0 1.34 0 0.68 0 0 Z " fill="#3A3B3D" transform="translate(427,647)"/>
<path d="M0 0 C2.70855454 0.3106694 5.41683388 0.62347745 8.125 0.9375 C9.26582031 1.06801758 9.26582031 1.06801758 10.4296875 1.20117188 C14.64329577 1.6915487 18.821195 2.25902978 23 3 C23 3.33 23 3.66 23 4 C14.52487174 5.76007178 8.02443051 3.93055221 0 1 C0 0.67 0 0.34 0 0 Z " fill="#59595A" transform="translate(341,603)"/>
<path d="M0 0 C-2.61833779 2.61833779 -4.79387826 2.93130263 -8.375 3.8125 C-9.51710938 4.10769531 -10.65921875 4.40289063 -11.8359375 4.70703125 C-15 5 -15 5 -17.4140625 3.57421875 C-17.93742188 3.05472656 -18.46078125 2.53523437 -19 2 C-16.77149723 1.66225668 -14.54216533 1.3299813 -12.3125 1 C-10.45044922 0.7215625 -10.45044922 0.7215625 -8.55078125 0.4375 C-5.64113629 0.07899589 -2.92299978 -0.08942256 0 0 Z " fill="#66696A" transform="translate(783,603)"/>
<path d="M0 0 C0 3 0 3 -1.75 5.04296875 C-2.4925 5.75066406 -3.235 6.45835937 -4 7.1875 C-4.7425 7.90292969 -5.485 8.61835938 -6.25 9.35546875 C-6.8275 9.89816406 -7.405 10.44085938 -8 11 C-8.33 10.01 -8.66 9.02 -9 8 C-7.87811441 6.85111717 -6.75238316 5.70598863 -5.625 4.5625 C-4.99851562 3.92441406 -4.37203125 3.28632813 -3.7265625 2.62890625 C-2 1 -2 1 0 0 Z " fill="#242327" transform="translate(449,322)"/>
<path d="M0 0 C0 0.99 0 1.98 0 3 C-0.66 2.67 -1.32 2.34 -2 2 C-1.34 1.34 -0.68 0.68 0 0 Z M-2 3 C-3.44253657 6.36591866 -5.33264727 8.51047079 -8 11 C-8.99 10.67 -9.98 10.34 -11 10 C-9.88121617 8.82737096 -8.75476949 7.66204862 -7.625 6.5 C-6.68527344 5.52546875 -6.68527344 5.52546875 -5.7265625 4.53125 C-4 3 -4 3 -2 3 Z " fill="#2A292D" transform="translate(381,297)"/>
<path d="M0 0 C-0.33 0.66 -0.66 1.32 -1 2 C-3.21484375 2.703125 -3.21484375 2.703125 -5.9375 3.25 C-6.83339844 3.44078125 -7.72929688 3.6315625 -8.65234375 3.828125 C-9.42707031 3.88484375 -10.20179688 3.9415625 -11 4 C-11.66 3.34 -12.32 2.68 -13 2 C-10.20661992 -0.79338008 -3.77618484 -0.11442984 0 0 Z " fill="#191B1E" transform="translate(769,606)"/>
<path d="M0 0 C0.66 0.33 1.32 0.66 2 1 C0.71451591 2.33929505 -0.57858155 3.67128643 -1.875 5 C-2.59429688 5.7425 -3.31359375 6.485 -4.0546875 7.25 C-6 9 -6 9 -8 9 C-6.4169423 4.7257442 -3.49431596 2.73468206 0 0 Z " fill="#26252A" transform="translate(736,649)"/>
<path d="M0 0 C1.8871875 0.0309375 1.8871875 0.0309375 3.8125 0.0625 C3.8125 0.3925 3.8125 0.7225 3.8125 1.0625 C1.5025 1.3925 -0.8075 1.7225 -3.1875 2.0625 C-2.8575 3.0525 -2.5275 4.0425 -2.1875 5.0625 C-4.1675 5.0625 -6.1475 5.0625 -8.1875 5.0625 C-7.875 3.125 -7.875 3.125 -7.1875 1.0625 C-4.43671116 0.14557039 -2.82801087 -0.04636083 0 0 Z " fill="#37393D" transform="translate(760.1875,605.9375)"/>
<path d="M0 0 C0.66 0 1.32 0 2 0 C2.33 1.32 2.66 2.64 3 4 C3.66 4 4.32 4 5 4 C5 4.66 5 5.32 5 6 C4.01 6.33 3.02 6.66 2 7 C0.4375 5.1875 0.4375 5.1875 -1 3 C-0.67 2.01 -0.34 1.02 0 0 Z " fill="#1A191D" transform="translate(422,643)"/>
<path d="M0 0 C0.66 0.33 1.32 0.66 2 1 C0.88121617 2.17262904 -0.24523051 3.33795138 -1.375 4.5 C-2.00148438 5.1496875 -2.62796875 5.799375 -3.2734375 6.46875 C-5 8 -5 8 -7 8 C-5.50902342 4.2047869 -3.24299151 2.38957269 0 0 Z " fill="#302E33" transform="translate(314,345)"/>
<path d="M0 0 C0.66 1.32 1.32 2.64 2 4 C1.01 5.32 0.02 6.64 -1 8 C-1.66 6.35 -2.32 4.7 -3 3 C-2.01 2.67 -1.02 2.34 0 2 C0 1.34 0 0.68 0 0 Z " fill="#2E2E31" transform="translate(427,647)"/>
</svg>